<svg xmlns="http://www.w3.org/2000/svg" xmlns:xlink="http://www.w3.org/1999/xlink" width="533.638" height="392.45" viewBox="0 0 533.638 392.45">
  <defs>
    <clipPath id="clip-path">
      <rect id="Rectangle_246" data-name="Rectangle 246" width="533.638" height="392.449" fill="none"/>
    </clipPath>
    <clipPath id="clip-path-2">
      <path id="Path_249" data-name="Path 249" d="M205.53,0C97.266,0,9.5,87.766,9.5,196.03s87.766,196.03,196.03,196.03,196.03-87.766,196.03-196.03S313.795,0,205.53,0Z" transform="translate(-9.5)" fill="none"/>
    </clipPath>
    <linearGradient id="linear-gradient" x1="-0.188" y1="1" x2="-0.168" y2="1" gradientUnits="objectBoundingBox">
      <stop offset="0" stop-color="#7e75db"/>
      <stop offset="1" stop-color="#4e4ad3"/>
    </linearGradient>
    <clipPath id="clip-path-4">
      <rect id="Rectangle_241" data-name="Rectangle 241" width="351.61" height="345.075" fill="none"/>
    </clipPath>
    <clipPath id="clip-path-5">
      <path id="Path_250" data-name="Path 250" d="M365.883,223.879c-5.445-59.9-47.452-115.129-95.681-133.021s-52.119,4.667-88.68-14.78S134.07,15.4,109.955,1.4A196.808,196.808,0,0,0,14.274,72.967c-1.556,34.228,18.67,68.455,38.117,88.68,40.451,40.451,74.678,16.336,130.687,49.785,70.011,42.784,76.234,117.463,104.238,135.354a196.03,196.03,0,0,0,78.568-122.908" transform="translate(-14.189 -1.4)" fill="none"/>
    </clipPath>
    <linearGradient id="linear-gradient-2" x1="-0.308" y1="1.106" x2="-0.286" y2="1.106" gradientUnits="objectBoundingBox">
      <stop offset="0" stop-color="#ffeeed"/>
      <stop offset="1" stop-color="#f9c6c5"/>
    </linearGradient>
    <clipPath id="clip-path-6">
      <rect id="Rectangle_243" data-name="Rectangle 243" width="259.818" height="248.694" fill="none"/>
    </clipPath>
    <clipPath id="clip-path-7">
      <path id="Path_251" data-name="Path 251" d="M172.3,104.847c-38.117-14.78-52.119,3.889-88.68-14.78S36.943,34.836,16.717,18.5A195.252,195.252,0,0,0,82.061,223.087l3.112,1.556,18.67,13.224a194.475,194.475,0,0,0,164.914,17.892c3.112-66.9-43.562-131.465-96.459-151.69" transform="translate(-9.468 -18.5)" fill="none"/>
    </clipPath>
    <linearGradient id="linear-gradient-3" x1="-0.282" y1="0.999" x2="-0.252" y2="0.999" xlink:href="#linear-gradient-2"/>
    <clipPath id="clip-path-8">
      <path id="Path_252" data-name="Path 252" d="M452.232,54.44c30.338,7.779,42.007,17.114,42.007,21.781s-7,14.78-29.56,28l-9.335,5.445-9.335,4.667-6.223,2.334a623.874,623.874,0,0,1-166.47,40.451,623.874,623.874,0,0,1-171.138,0l-6.223-1.556-10.113-2.334L75.73,150.9c-24.893-7-35.005-16.336-35.005-20.225s8.557-17.114,35.783-31.116a194.474,194.474,0,0,1,14-49.785l-4.667,1.556C43.836,69.22-4.394,97.225.274,136.119s31.894,47.452,84.791,58.342l10.113,1.556h.778l11.668,1.556a530.525,530.525,0,0,0,61.454,4.667,788.012,788.012,0,0,0,108.906-6.223,690,690,0,0,0,165.692-38.895l10.89-4.667h.778l9.335-4.667c49.008-22.559,72.344-48.23,68.455-76.234S474.791,17.1,431.229,10.1h-4.667a194.475,194.475,0,0,1,25.671,45.118" transform="translate(0.04 -10.1)" fill="none"/>
    </clipPath>
    <linearGradient id="linear-gradient-4" x1="0.009" y1="1.624" x2="0.023" y2="1.624" xlink:href="#linear-gradient-2"/>
  </defs>
  <g id="Artwork_53" data-name="Artwork 53" transform="translate(266.819 196.225)">
    <g id="Group_354" data-name="Group 354" transform="translate(-266.819 -196.225)" clip-path="url(#clip-path)">
      <g id="Group_345" data-name="Group 345" transform="translate(73.9)" clip-path="url(#clip-path-2)">
        <rect id="Rectangle_239" data-name="Rectangle 239" width="392.838" height="392.449" fill="url(#linear-gradient)"/>
      </g>
      <g id="Group_352" data-name="Group 352" clip-path="url(#clip-path)">
        <g id="Group_348" data-name="Group 348" transform="translate(110.461 10.891)" opacity="0.15">
          <g id="Group_347" data-name="Group 347" clip-path="url(#clip-path-4)">
            <g id="Group_346" data-name="Group 346" transform="translate(-0.084 0)" clip-path="url(#clip-path-5)">
              <rect id="Rectangle_240" data-name="Rectangle 240" width="353.166" height="345.075" transform="translate(-1.471 0)" fill="url(#linear-gradient-2)"/>
            </g>
          </g>
        </g>
        <g id="Group_351" data-name="Group 351" transform="translate(73.9 143.911)" opacity="0.15">
          <g id="Group_350" data-name="Group 350" clip-path="url(#clip-path-6)">
            <g id="Group_349" data-name="Group 349" transform="translate(-0.248)" clip-path="url(#clip-path-7)">
              <rect id="Rectangle_242" data-name="Rectangle 242" width="262.152" height="248.694" transform="translate(0.248)" fill="url(#linear-gradient-3)"/>
            </g>
          </g>
        </g>
      </g>
      <g id="Group_353" data-name="Group 353" transform="translate(-0.314 78.568)" clip-path="url(#clip-path-8)">
        <rect id="Rectangle_245" data-name="Rectangle 245" width="540.639" height="193.697" transform="translate(-4.353 -0.778)" fill="url(#linear-gradient-4)"/>
      </g>
    </g>
  </g>
</svg>
