<svg xmlns="http://www.w3.org/2000/svg" xmlns:xlink="http://www.w3.org/1999/xlink" width="960" height="1147" viewBox="0 0 960 1147">
  <defs>
    <clipPath id="clip-path">
      <rect id="Rectangle_1578" data-name="Rectangle 1578" width="960" height="1147" transform="translate(960)" fill="#fff" stroke="#707070" stroke-width="1"/>
    </clipPath>
    <clipPath id="clip-path-2">
      <path id="Path_69" data-name="Path 69" d="M764.081,0a22.174,22.174,0,0,1-3.629.6c-25,.2-49.795,1.613-74.591,3.226C666.305,5.04,646.75,6.653,627.4,8.266L577.6,13.1l-48.787,5.645-50.6,6.451-53.625,7.258-45.561,6.451c-35.481,5.443-70.761,11.29-105.436,20.16a369.33,369.33,0,0,0-63.705,21.773C186.3,91.727,164.93,106.041,148.2,126.2a156.844,156.844,0,0,0-35.481,78.019,230.224,230.224,0,0,0-.806,55.843c2.218,24.192,6.653,47.98,10.685,71.769,3.427,20.16,6.653,40.32,8.87,60.681a515.679,515.679,0,0,1,3.226,57.657c0,13.1-1.008,26.409-1.814,39.513a382.23,382.23,0,0,1-7.862,53.02A483.232,483.232,0,0,1,92.153,643.5C78.444,673.54,60.7,701.16,40.544,727.367c-8.669,11.491-17.337,23.184-25.2,35.28A91.526,91.526,0,0,0,.023,816.272,137.489,137.489,0,0,0,7.885,857.2a229.015,229.015,0,0,0,29.433,56.246c18.144,26.208,39.916,49.19,63.705,70.358a615.872,615.872,0,0,0,85.276,63.3,762.443,762.443,0,0,0,235.064,95.961,635.612,635.612,0,0,0,75.6,12.3c13.709,1.411,27.619,2.217,41.529,2.822s25,.806,37.3.4,24.8-1.21,37.3-2.419a490.5,490.5,0,0,0,67.535-11.088,451.175,451.175,0,0,0,103.42-38.3,463.871,463.871,0,0,0,76.809-50.2,545.319,545.319,0,0,0,72.979-70.761A613.264,613.264,0,0,0,992.9,904.169a644.3,644.3,0,0,0,52.214-107.25,555.792,555.792,0,0,0,27.619-99.388c2.621-14.918,4.234-30.038,6.25-45.158.4-3.226.2-6.25.4-9.475a27.42,27.42,0,0,1,.6-3.629V592.7a24.837,24.837,0,0,1-.806-3.629c-2.016-36.288-10.08-70.963-26.812-103.42-4.839-9.475-10.685-18.547-16.128-27.619-7.661-12.5-15.725-24.595-23.184-37.094a191.314,191.314,0,0,1-24.6-75.8,206.837,206.837,0,0,1,6.854-81.849,240.294,240.294,0,0,1,18.749-46.973c10.282-19.152,20.966-37.9,31.651-56.851a216.926,216.926,0,0,0,14.515-30.643,81.649,81.649,0,0,0,5.645-28.627,61.085,61.085,0,0,0-12.9-37.094c-9.475-12.5-21.773-21.168-35.481-28.224C999.951,25.8,981.2,19.958,961.849,15.321A467.3,467.3,0,0,0,903.99,5.645c-13.305-1.411-26.611-2.419-39.916-3.226s-24.8-1.21-37.5-1.814L822.141,0Z" transform="translate(0.022)" fill="none"/>
    </clipPath>
    <radialGradient id="radial-gradient" cx="0.76" cy="0.501" r="0.483" gradientTransform="matrix(1.073, 0, 0, -1, 0, 2)" gradientUnits="objectBoundingBox">
      <stop offset="0" stop-color="#191075"/>
      <stop offset="1" stop-color="#110a50"/>
    </radialGradient>
  </defs>
  <g id="Mask_Group_3" data-name="Mask Group 3" transform="translate(-960)" clip-path="url(#clip-path)">
    <g id="Artwork_49" data-name="Artwork 49" transform="translate(1524.521 538.44)">
      <g id="Group_60" data-name="Group 60" transform="translate(-540.004 -579.398)" clip-path="url(#clip-path-2)">
        <rect id="Rectangle_2" data-name="Rectangle 2" width="1080.366" height="1158.768" transform="translate(-0.56)" fill="url(#radial-gradient)"/>
      </g>
    </g>
  </g>
</svg>
