<svg id="Page-1" xmlns="http://www.w3.org/2000/svg" width="128.42" height="48.675" viewBox="0 0 128.42 48.675">
  <g id="Apple-TV-Copy-12">
    <g id="Group-25">
      <g id="Group-20">
        <g id="spaced-logo-desktop">
          <path id="Shape" d="M25.891,34.841H55.925V46.114H32.553a6.634,6.634,0,0,1-6.661-6.591ZM88.548,13.834H58.514V2.562H59.95a6.653,6.653,0,0,1,4.71,1.931A9.241,9.241,0,0,0,71.2,7.173H88.548ZM25.891,16.4H89.843a7.942,7.942,0,0,1,0,15.884H25.891Zm0-7.243a6.634,6.634,0,0,1,6.661-6.591H55.925V13.834H25.891ZM10.615,16.4H23.3V32.279H10.615a7.942,7.942,0,1,1,0-15.884ZM59.95,46.114H58.514V34.841H88.548V41.5H71.2a9.242,9.242,0,0,0-6.541,2.681,6.653,6.653,0,0,1-4.71,1.931Zm57.855-13.834H111.78a9.241,9.241,0,0,0-6.541,2.681l-4.661,4.611a6.653,6.653,0,0,1-4.71,1.931H91.137V34.755a10.482,10.482,0,0,0,0-20.835V7.173h4.731a6.653,6.653,0,0,1,4.71,1.931l4.661,4.611A9.241,9.241,0,0,0,111.78,16.4h6.025a7.942,7.942,0,1,1,0,15.884Zm0-18.445H111.78a6.654,6.654,0,0,1-4.71-1.931l-4.66-4.611a9.241,9.241,0,0,0-6.541-2.681H71.2a6.653,6.653,0,0,1-4.71-1.931A9.241,9.241,0,0,0,59.95,0h-27.4A9.213,9.213,0,0,0,23.3,9.153v4.681H10.615a10.5,10.5,0,1,0,0,21.007H23.3v4.681a9.213,9.213,0,0,0,9.25,9.153h27.4a9.241,9.241,0,0,0,6.541-2.681,6.653,6.653,0,0,1,4.71-1.931H95.868a9.242,9.242,0,0,0,6.541-2.681l4.66-4.611a6.654,6.654,0,0,1,4.71-1.931h6.025a10.5,10.5,0,1,0,0-21.007Z" fill="#120a50" fill-rule="evenodd"/>
          <path id="Path" d="M37.557,23.232,36.31,22.98c-.644-.126-.919-.477-.919-.953a1.166,1.166,0,0,1,1.274-1.065,1.438,1.438,0,0,1,1.55,1.247l1.865-.561A3.144,3.144,0,0,0,36.677,19a3.23,3.23,0,0,0-3.336,3.195,2.921,2.921,0,0,0,2.535,2.915l1.274.253c.617.126,1,.49,1,1,0,.616-.5,1.037-1.314,1.037a1.773,1.773,0,0,1-1.93-1.71l-1.9.49a3.554,3.554,0,0,0,3.808,3.181,3.213,3.213,0,0,0,3.441-3.139,3.023,3.023,0,0,0-2.692-2.985Z" transform="translate(1.176 0.677)" fill="#120a50" fill-rule="evenodd"/>
          <path id="Shape-2" data-name="Shape" d="M44.568,23.645H43.26V21h1.308a1.327,1.327,0,1,1,0,2.644ZM44.8,19H41V29.356h2.246V25.632H44.8A3.319,3.319,0,1,0,44.8,19Z" transform="translate(1.462 0.677)" fill="#120a50" fill-rule="evenodd"/>
          <path id="Shape-3" data-name="Shape" d="M51.9,25.149l1.262-3.578,1.212,3.517.021.062H51.9Zm3.22,2.1.739,2.1h2.495l-1.294-3.5L54.527,19H51.873L48,29.356h2.408l.74-2.1h3.974Z" transform="translate(1.711 0.677)" fill="#120a50" fill-rule="evenodd"/>
          <path id="Path-2" data-name="Path" d="M62.406,29.356a4.767,4.767,0,0,0,4.95-3.475l-2.218-.6a2.64,2.64,0,0,1-2.733,1.863,2.992,2.992,0,0,1-.029-5.984,2.494,2.494,0,0,1,2.659,1.849l2.189-.658C66.886,20.92,65.506,19,62.377,19A5.186,5.186,0,0,0,57,24.2a5.126,5.126,0,0,0,5.406,5.158Z" transform="translate(2.032 0.677)" fill="#120a50" fill-rule="evenodd"/>
          <path id="Path-3" data-name="Path" d="M75.214,27.165H71.182V25.179h3.646v-2.03H71.182V21.176H75.2V19H69V29.356h6.214Z" transform="translate(2.46 0.677)" fill="#120a50" fill-rule="evenodd"/>
          <path id="Shape-4" data-name="Shape" d="M78.136,27.18v-6h1.243c1.474,0,2.676.935,2.676,3.009s-1.2,2.995-2.676,2.995Zm6.15-2.995c0-3.2-1.933-5.186-4.812-5.186H76V29.356h3.46C82.352,29.356,84.285,27.385,84.285,24.186Z" transform="translate(2.709 0.677)" fill="#120a50" fill-rule="evenodd"/>
        </g>
      </g>
    </g>
  </g>
</svg>
